# AST/ASF file generated using VICON BodyLanguage
# -----------------------------------------------
:version 1.10
:name VICON
:units
  mass 1.0
  length 0.45
  angle deg
:documentation
   .ast/.asf automatically generated from VICON data using
   VICON BodyBuilder and BodyLanguage model FoxedUp or BRILLIANT.MOD
:root
   order TX TY TZ RX RY RZ
   axis XYZ
   position 0 0 0  
   orientation 0 0 0 
:bonedata
  begin
     id 1 
     name lhipjoint
     direction 0.682418 -0.694059 0.22932 
     length 2.25561 
     axis 0 0 0  XYZ
  end
  begin
     id 2 
     name lfemur
     direction 0.34202 -0.939693 0  
     length 6.96448  
     axis 0 0 20  XYZ
    dof rx ry rz
    limits (-160.0 20.0)
           (-70.0 70.0)
           (-60.0 70.0)
  end
  begin
     id 3 
     name ltibia
     direction 0.34202 -0.939693 0   
     length 6.88553   
     axis 0 0 20   XYZ
    dof rx
    limits (-10.0 170.0)
  end
  begin
     id 4 
     name lfoot
     direction 0.0723587 -0.198804 0.977364   
     length 1.88518   
     axis -90 7.62852e-016 20   XYZ
    dof rx rz
    limits (-45.0 90.0)
           (-70.0 20.0)
  end
  begin
     id 5 
     name ltoes
     direction 1.53558e-011 -4.21962e-011 1   
     length 0.952124   
     axis -90 7.62852e-016 20   XYZ
    dof rx
    limits (-90.0 20.0)
  end
  begin
     id 6 
     name rhipjoint
     direction -0.657603 -0.71533 0.236348   
     length 2.18854  
     axis 0 0 0  XYZ 
  end
  begin
     id 7 
     name rfemur
     direction -0.34202 -0.939693 0   
     length 6.86686   
     axis 0 0 -20   XYZ
    dof rx ry rz
    limits (-160.0 20.0)
           (-70.0 70.0)
           (-70.0 60.0)
  end
  begin
     id 8 
     name rtibia
     direction -0.34202 -0.939693 0   
     length 6.59503   
     axis 0 0 -20   XYZ
    dof rx
    limits (-10.0 170.0)
 end
 begin
     id 9 
     name rfoot
     direction -0.101977 -0.280179 0.954516   
     length 1.93723  
     axis -90 -7.62852e-016 -20   XYZ
    dof rx rz
    limits (-45.0 90.0)
           (-20.0 70.0)
  end
  begin
     id 10 
     name rtoes
     direction -1.53564e-011 -4.21897e-011 1   
     length 0.970315   
     axis -90 -7.62852e-016 -20   XYZ
    dof rx
    limits (-90.0 20.0)
  end
  begin
     id 11 
     name lowerback
     direction -0.0339559 0.999421 -0.00235966   
     length 1.88543   
     axis 0 0 0   XYZ
    dof rx ry rz
    limits (-20.0 45.0)
           (-30.0 30.0)
           (-30.0 30.0)
  end
  begin
     id 12 
     name upperback
     direction 0.00401003 0.999739 0.0224689   
     length 1.8856   
     axis 0 0 0   XYZ
    dof rx ry rz
    limits (-20.0 45.0)
           (-30.0 30.0)
           (-30.0 30.0)
  end
  begin
     id 13 
     name thorax
     direction 0.0198619 0.999546 0.0226536   
     length 1.88352   
     axis 0 0 0   XYZ
    dof rx ry rz
    limits (-20.0 45.0)
           (-30.0 30.0)
           (-30.0 30.0)
  end
  begin
     id 14 
     name lowerneck
     direction -0.0461848 0.998632 0.0245198   
     length 1.34895   
     axis 0 0 0   XYZ
    dof rx ry rz
    limits (-20.0 45.0)
           (-30.0 30.0)
           (-30.0 30.0)
  end
  begin
     id 15 
     name upperneck
     direction -0.0180627 0.994724 -0.100984   
     length 1.35214   
     axis 0 0 0   XYZ
    dof rx ry rz
    limits (-20.0 45.0)
           (-30.0 30.0)
           (-30.0 30.0)
  end
  begin
     id 16
     name head
     direction -0.00374772 0.999293 -0.037403  
     length 1.3568  
     axis 0 0 0   XYZ
    dof rx ry rz
    limits (-20.0 45.0)
           (-30.0 30.0)
           (-30.0 30.0)
  end
  begin
     id 17 
     name lclavicle
     direction 0.971773 0.191119 0.138311  
     length 2.84954  
     axis 0 0 0   XYZ
    dof ry rz
    limits (-20.0 10.0)
           (0.0 20.0)
  end
  begin
     id 18 
     name lhumerus
     direction 1 -4.4897e-011 -2.43761e-027   
     length 4.40919   
     axis 180 -30 -90   XYZ
    dof rx ry rz
    limits (-60.0 90.0)
           (-90.0 90.0)
           (-90.0 90.0)
  end
  begin
     id 19
     name lradius
     direction 1 -4.4896e-011 -9.1621e-027   
     length 3.03857   
     axis 180 -30 -90   XYZ
    dof rx
    limits (-10.0 170.0)
  end
  begin
     id 20
     name lwrist
     direction 1 -4.4896e-011 -1.41363e-026   
     length 1.51928   
     axis 1.07133e-014 90 90   XYZ
    dof ry
    limits (-180.0 0.0)
 end
  begin
     id 21 
     name lhand
     direction 1 -4.48978e-011 -2.82725e-026   
     length 0.523208   
     axis 1.80403e-014 90 90   XYZ
    dof rx rz
    limits (-90.0 90.0)
           (-45.0 45.0)
  end
  begin
     id 22 
     name lfingers
     direction 1 -4.48977e-011 -5.6545e-026   
     length 0.421824   
     axis 3.60806e-014 90 90   XYZ
    dof rx
    limits (0.0 90.0)
  end
  begin
     id 23
     name lthumb
     direction 0.707107 -6.34962e-011 0.707107   
     length 0.605657   
     axis -90 45 2.85299e-015   XYZ
    dof rx rz
    limits (-45.0 45.0)
           (-45.0 45.0)
  end
  begin
     id 24 
     name rclavicle
     direction -0.957247 0.24311 0.156766   
     length 3.12406  
     axis 0 0 0   XYZ 
    dof ry rz
    limits (-10.0 20.0)
           (-20.0 0.0)
  end
  begin
     id 25 
     name rhumerus
     direction -1 -4.48964e-011 -1.70632e-027  
     length 4.61969   
     axis 180 30 90   XYZ
    dof rx ry rz
    limits (-90.0 60.0)
           (-90.0 90.0)
           (-90.0 90.0)
  end
  begin
     id 26 
     name rradius
     direction -1 -4.48966e-011 -6.60395e-027   
     length 3.09382   
     axis 180 30 90   XYZ
    dof rx
    limits (-10.0 170.0)
  end
  begin
     id 27 
     name rwrist
     direction -1 -4.48963e-011 -1.41363e-026   
     length 1.54691   
     axis 1.07133e-014 -90 -90   XYZ
    dof ry
    limits (-180.0 0.0)
  end
  begin
     id 28
     name rhand
     direction -1 -4.49013e-011 -2.82725e-026   
     length 0.500896   
     axis 1.80403e-014 -90 -90   XYZ
    dof rx rz
    limits (-90.0 90.0)
           (-45.0 45.0)
  end
  begin
     id 29
     name rfingers
     direction -1 -4.48902e-011 -5.6545e-026   
     length 0.403835   
     axis 3.60806e-014 -90 -90   XYZ
    dof rx
    limits (0.0 90.0)
  end
  begin
     id 30
     name rthumb
     direction -0.707107 -6.34953e-011 0.707107   
     length 0.579829   
     axis -90 -45 -2.85299e-015   XYZ
    dof rx rz
    limits (-45.0 45.0)
           (-45.0 45.0)
  end
:hierarchy
  begin
    root lhipjoint rhipjoint lowerback
    lhipjoint lfemur
    lfemur ltibia
    ltibia lfoot
    lfoot ltoes
    rhipjoint rfemur
    rfemur rtibia
    rtibia rfoot
    rfoot rtoes
    lowerback upperback
    upperback thorax
    thorax lowerneck lclavicle rclavicle
    lowerneck upperneck
    upperneck head
    lclavicle lhumerus
    lhumerus lradius
    lradius lwrist
    lwrist lhand lthumb
    lhand lfingers
    rclavicle rhumerus
    rhumerus rradius
    rradius rwrist
    rwrist rhand rthumb
    rhand rfingers
  end

#!OML:ASF E:\madness\Project 1\Capture day 1\Session 1\Female1.ASF
:FULLY-SPECIFIED
:DEGREES
34
root 0.196791 16.0258 -0.973914 -163.068 -87.4651 166.64
lowerback -1.36624 -0.63156 -3.37212
upperback -4.45248 -0.938461 0.68995
thorax -3.76098 -0.372419 2.62123
lowerneck 10.6409 -0.887285 -0.340572
upperneck -1.61953 -1.50688 -4.38844
head -2.40282 -0.628805 -1.27454
rclavicle 4.91371e-015 -2.68359e-015
rhumerus -44.2256 -3.69203 -83.4816
rradius 29.2353
rwrist 7.57576
rhand -12.1765 -46.702
rfingers 7.12502
rthumb 13.8869 -76.2183
lclavicle 4.91371e-015 -2.68359e-015
lhumerus -48.5312 20.4924 74.5126
lradius 32.9433
lwrist -19.6597
lhand -16.7191 -12.8683
lfingers 7.12502
lthumb 9.50642 16.8973
rfemur -9.84544 16.1655 20.4842
rtibia 26.1284
rfoot -20.5882 -12.1888
rtoes 19.0757
lfemur -8.63862 -16.9029 -17.7076
ltibia 28.0778
lfoot -13.2475 20.4607
ltoes -7.09354
35
root 0.20255 16.026 -0.979915 -162.818 -87.5013 166.336
lowerback -1.17215 -0.586944 -3.36433
upperback -4.43543 -0.88259 0.714776
thorax -3.85661 -0.34177 2.64415
lowerneck 10.134 -0.821488 -0.534553
upperneck -1.25889 -1.41291 -4.23567
head -2.18169 -0.597712 -1.19304
rclavicle -7.9079e-015 -9.0447e-015
rhumerus -44.144 -3.69866 -83.3747
rradius 29.1323
rwrist 7.48482
rhand -12.0497 -46.1865
rfingers 7.12502
rthumb 14.0091 -75.6944
lclavicle -7.9079e-015 -9.0447e-015
lhumerus -48.3679 20.6269 74.505
lradius 32.675
lwrist -19.8877
lhand -17.0286 -12.7653
lfingers 7.12502
lthumb 9.20772 17.0137
rfemur -9.80651 16.1579 20.5218
rtibia 26.1218
rfoot -20.5718 -12.2499
rtoes 19.4183
lfemur -8.59839 -16.8978 -17.6957
ltibia 28.0768
lfoot -12.8952 20.5233
ltoes -8.80768
36
root 0.205097 16.0272 -0.98675 -162.111 -87.5013 165.636
lowerback -1.21902 -0.439092 -3.33948
upperback -4.23451 -0.674091 0.700148
thorax -3.63544 -0.242976 2.60848
lowerneck 9.10645 -0.914432 -0.775968
upperneck -0.811397 -1.51727 -4.10131
head -1.8438 -0.670403 -1.10045
rclavicle 1.51573e-015 -3.08116e-015
rhumerus -43.7584 -4.05712 -83.1139
rradius 29.0309
rwrist 7.454
rhand -12.0977 -46.1514
rfingers 7.12502
rthumb 13.9628 -75.6625
lclavicle 1.51573e-015 -3.08116e-015
lhumerus -47.7148 20.6141 74.8001
lradius 32.3793
lwrist -20.0627
lhand -17.4356 -12.9139
lfingers 7.12502
lthumb 8.81501 16.882
rfemur -9.81865 16.1529 20.5185
rtibia 26.1073
rfoot -20.5316 -12.3154
rtoes 19.4212
lfemur -8.63666 -16.9546 -17.6979
ltibia 28.0912
lfoot -12.4818 20.6287
ltoes -9.95121
37
root 0.209013 16.0265 -0.993443 -162.781 -87.4647 166.381
lowerback -1.28857 -0.544829 -3.40229
upperback -4.46436 -0.82461 0.722228
thorax -3.82475 -0.312348 2.6708
lowerneck 10.1053 -0.775652 -0.612696
upperneck -1.19851 -1.35321 -4.12164
head -2.15254 -0.572221 -1.14509
rclavicle -5.13113e-015 4.77083e-015
rhumerus -44.204 -3.81733 -83.2075
rradius 29.0132
rwrist 7.8316
rhand -11.697 -46.1408
rfingers 7.12502
rthumb 14.3489 -75.625
lclavicle -5.13113e-015 4.77083e-015
lhumerus -48.3739 20.758 74.295
lradius 32.4463
lwrist -19.9628
lhand -17.6062 -13.1864
lfingers 7.12502
lthumb 8.65034 16.6163
rfemur -9.8959 16.0819 20.5484
rtibia 26.0876
rfoot -20.5274 -12.2584
rtoes 18.9902
lfemur -8.70715 -16.9299 -17.6242
ltibia 28.1008
lfoot -12.7378 20.5804
ltoes -8.69285
38
root 0.212426 16.0273 -0.999415 -163.492 -87.435 167.138
lowerback -1.16223 -0.444555 -3.31228
upperback -4.41876 -0.691477 0.703582
thorax -3.8587 -0.248314 2.59946
lowerneck 9.39286 -0.791058 -0.708493
upperneck -0.917361 -1.35349 -4.04477
head -1.92744 -0.585596 -1.10179
rclavicle 2.36678e-015 6.95746e-016
rhumerus -44.0336 -4.17438 -82.9373
rradius 28.9518
rwrist 8.56878
rhand -10.8835 -45.8552
rfingers 7.12502
rthumb 15.1328 -75.282
lclavicle 2.36678e-015 6.95746e-016
lhumerus -48.0646 20.7583 74.3355
lradius 32.2173
lwrist -20.1294
lhand -17.77 -13.8613
lfingers 7.12502
lthumb 8.4923 15.9479
rfemur -9.9447 15.9867 20.5779
rtibia 26.0421
rfoot -20.4766 -12.1587
rtoes 18.6096
lfemur -8.76018 -16.8633 -17.5525
ltibia 28.1289
lfoot -13.628 20.1832
ltoes -4.70817
